# xmcd
#
# Track frame offsets:
#	300
#	17027
#	30829
#	42081
#	53633
#	65410
#	77712
#	90389
#	101416
#	118068
#	129620
#	142747
#	158274
#	170576
#	184153
#	200055
#
# Disc length: 2793 seconds
#
# Revision: 0
# Processed by: cddbd v1.5.2PL0 Copyright (c) Steve Scherf et al.
# Submitted via: audiograbber 1.83.01
#
DISCID=c40ae510
DTITLE=Various Artist - SYB-1049
DYEAR=1900
DGENRE=
TTITLE0=Kenny Rogers - Lucille
TTITLE1=Lynn Anderson - Rose Garden
TTITLE2=Willie Nelson - On the Road Again
TTITLE3=Kris Kristofferson - Help Me Make It Through the Night
TTITLE4=John Denver - Take Me Home, Country Roads
TTITLE5=Tammy Wynette - Stand by Your Man
TTITLE6=Osmond Brothers - Rocky Top
TTITLE7=Crystal Gayle - Don't It Make My Brown Eyes Blue
TTITLE8=Kenny Rogers - The Gambler
TTITLE9=Marie Osmond - Paper Roses
TTITLE10=Oak Ridge Boys - Elvira
TTITLE11=Jeannie C Riley - Harper Valley P.T.A.
TTITLE12=Glen Campbell - By the Time I Get to Phoenix
TTITLE13=Yanya Tucker - Delta Dawn
TTITLE14=Willie Nelson - Always on My Mind
TTITLE15=Charley Pride - Kiss an Angel Good Morning
EXTD=Karaoke
EXTT0=
EXTT1=
EXTT2=
EXTT3=
EXTT4=
EXTT5=
EXTT6=
EXTT7=
EXTT8=
EXTT9=
EXTT10=
EXTT11=
EXTT12=
EXTT13=
EXTT14=
EXTT15=
PLAYORDER=
